<svg width="172" height="37" viewBox="0 0 172 37" fill="none" xmlns="http://www.w3.org/2000/svg">
<path d="M29.4009 0C30.1568 0.142925 30.9214 0.251653 31.6677 0.43842C37.3247 1.82646 41.5541 6.65346 42.2057 12.445C42.6256 16.0874 41.6045 19.7496 39.3606 22.6495C37.1167 25.5494 33.8277 27.457 30.1962 27.965C29.6032 28.0463 29.0049 28.082 28.4064 28.072C28.0373 28.072 27.8364 28.1834 27.6532 28.5043C26.1168 31.1997 24.562 33.8855 23.0125 36.5712C22.9476 36.6835 22.8801 36.7931 22.7564 37V23.7159H23.2045C24.9274 23.7159 26.652 23.7159 28.3784 23.7159C33.1006 23.7089 37.3081 19.956 37.8377 15.2798C38.4384 9.96967 34.9439 5.3496 29.6631 4.48767C29.2015 4.41605 28.735 4.38029 28.2679 4.38069C26.4439 4.36929 24.6199 4.37631 22.7433 4.37631V0H29.4009Z" fill="#E2504B"/>
<path d="M19.585 0V4.3763H14.0867C9.11364 4.3763 4.84129 8.22738 4.42212 13.086C3.98366 18.1576 7.34402 22.6268 12.2995 23.544C12.8733 23.6486 13.4551 23.7034 14.0384 23.708C15.8624 23.729 17.6864 23.7159 19.549 23.7159V28.0238C19.528 28.0431 19.5174 28.0624 19.5069 28.0615C16.7543 28.0098 13.9823 28.3394 11.2507 27.8098C5.42532 26.6805 0.865328 21.7912 0.117315 15.9006C-0.842036 8.38171 4.17921 1.53973 11.6365 0.20518C12.0645 0.128895 12.495 0.0683935 12.9239 0H19.585Z" fill="#E2504B"/>
<path d="M171.566 8.74714C170.98 10.1501 170.386 11.5583 169.812 12.9691C167.459 18.7294 165.105 24.4896 162.751 30.2499C162.693 30.3902 162.51 30.5734 162.383 30.5752C160.88 30.598 159.376 30.5901 157.812 30.5901C157.865 30.4366 157.899 30.3191 157.946 30.2078C158.761 28.2638 159.573 26.3181 160.401 24.3794C160.458 24.2649 160.487 24.1387 160.486 24.011C160.485 23.8832 160.454 23.7575 160.396 23.6438C158.224 18.8159 156.059 13.9851 153.902 9.15136C153.838 9.00844 153.781 8.86288 153.701 8.66822C155.029 8.66822 156.296 8.66822 157.564 8.66822C157.956 8.66822 158.441 8.54985 158.715 8.73486C158.989 8.91987 159.057 9.41441 159.203 9.77743C160.344 12.6418 161.484 15.5061 162.623 18.3705C162.663 18.4722 162.71 18.5721 162.79 18.7598C163.141 17.811 163.459 16.9421 163.777 16.0723C164.639 13.7258 165.505 11.3803 166.352 9.0286C166.454 8.74538 166.584 8.6577 166.878 8.66033C168.441 8.67436 170.004 8.66033 171.566 8.66033V8.74714Z" fill="black"/>
<path d="M60.7933 10.3822V2.98782H65.1349V3.47096C65.1349 10.4366 65.1387 17.4028 65.1463 24.3696C65.1463 24.8299 65.0113 24.9281 64.5807 24.9167C63.4863 24.8869 62.3884 24.9062 61.2949 24.9062H60.7898V23.4155C60.101 24.1052 59.2506 24.6116 58.316 24.8886C54.205 26.1381 49.0469 24.3099 48.0753 18.6473C47.7167 16.5534 47.9297 14.52 48.9277 12.6217C50.2711 10.0665 52.4634 8.79513 55.3046 8.59346C56.7367 8.49174 58.1362 8.66097 59.4034 9.40015C59.8752 9.67109 60.2987 10.028 60.7933 10.3822ZM56.6314 21.3716C59.3244 21.3716 60.9617 19.6925 60.9625 16.9348C60.9625 14.1947 59.2552 12.4147 56.6244 12.4147C53.9314 12.4147 52.2486 14.1517 52.2503 16.9313C52.2521 19.5952 54.0059 21.3734 56.6314 21.3716Z" fill="black"/>
<path d="M114.505 10.2528V8.95772H118.83V29.9896H114.519V23.316C113.73 24.1472 112.875 24.6786 111.878 24.946C107.627 26.0859 102.749 24.1209 101.8 18.7038C101.352 16.1513 101.721 13.7356 103.272 11.6014C104.683 9.65657 106.672 8.7429 109.036 8.59033C110.211 8.51404 111.379 8.60348 112.456 9.11117C113.161 9.43823 113.819 9.86438 114.505 10.2528ZM114.68 16.5661C114.641 15.1631 114.119 13.6611 112.449 12.8974C110.78 12.1336 109.089 12.1862 107.568 13.3253C106.046 14.4643 105.518 16.7651 106.241 18.7257C107.141 21.1686 109.607 21.8332 111.786 21.1975C113.599 20.6705 114.684 19.0177 114.684 16.5669L114.68 16.5661Z" fill="black"/>
<path d="M74.9556 8.56256C79.0841 8.64147 82.5453 11.2694 83.509 15.1292C84.3579 18.5226 82.7593 22.1439 79.5734 24.0414C75.6054 26.4089 70.3289 25.3006 67.7683 21.5942C64.4992 16.8592 66.9309 10.4907 72.6361 8.94223C73.3859 8.73793 74.1812 8.68532 74.9556 8.56256ZM74.967 12.4741C72.5116 12.4829 70.5771 14.4795 70.6008 16.9793C70.6262 19.5792 72.4862 21.4696 75.0108 21.4617C77.4785 21.4539 79.3796 19.4626 79.3612 16.9022C79.3489 14.4102 77.4144 12.4654 74.9643 12.4741H74.967Z" fill="black"/>
<path d="M120.652 8.99448C122.093 8.99448 123.466 8.99448 124.837 8.99448C124.922 9.00252 125.005 9.01688 125.088 9.03745V9.56355C125.093 12.6246 125.082 15.6865 125.112 18.7475C125.128 20.4591 126.062 21.4052 127.806 21.5806C129.357 21.7376 130.757 20.7424 131.065 19.2272C131.167 18.7134 131.219 18.191 131.22 17.6673C131.235 14.9701 131.227 12.273 131.227 9.57583V9.0243H135.584C135.591 9.17423 135.605 9.32681 135.605 9.48025C135.605 14.449 135.607 19.4204 135.613 24.3944C135.613 24.7749 135.542 24.9301 135.115 24.9205C133.975 24.8889 132.835 24.9091 131.695 24.9091H131.224V23.6333C131.105 23.7096 131.048 23.7411 130.995 23.7824C128.726 25.6167 126.229 25.6588 123.672 24.582C121.912 23.8402 121.147 22.2786 120.837 20.4898C120.717 19.7427 120.658 18.987 120.662 18.2302C120.643 15.3288 120.654 12.4273 120.654 9.52585L120.652 8.99448Z" fill="black"/>
<path d="M101.098 20.5849C99.9655 22.8726 98.2915 24.4544 95.794 25.0235C92.8817 25.6872 90.1571 25.2751 87.7719 23.389C83.2172 19.787 83.6399 13.0423 88.591 9.99007C92.8133 7.39113 98.2292 8.62484 100.876 12.7907C100.976 12.9476 101.062 13.1142 101.182 13.3238L97.2804 14.8574C96.9603 14.476 96.6832 14.0805 96.3421 13.7508C94.9732 12.4294 93.3605 12.1725 91.6119 12.8135C90.0607 13.3826 89.0592 14.9942 88.9812 16.7137C88.8654 19.2153 90.4202 20.7568 91.9215 21.2373C92.8643 21.5499 93.8835 21.5462 94.824 21.2267C95.7646 20.9071 96.575 20.2892 97.1322 19.4669C97.3128 19.2039 97.4505 19.1285 97.76 19.2565C98.8501 19.7089 99.9506 20.1307 101.098 20.5849Z" fill="black"/>
<path d="M149.855 12.4907C149.855 14.2523 149.849 15.9262 149.855 17.5992C149.855 18.341 149.849 19.0898 149.911 19.8246C150.019 21.1057 150.517 21.5397 151.792 21.5467C152.153 21.5467 152.513 21.5467 152.897 21.5467V25.2181C152.231 25.247 151.566 25.3154 150.905 25.2944C150.061 25.2802 149.219 25.2123 148.383 25.0909C146.564 24.8016 145.546 23.574 145.539 21.7326C145.529 18.8338 145.539 15.9341 145.539 13.0344V12.5144H143.62V8.68701H145.524V4.41154H149.843V8.65106H153.04V12.4907H149.855Z" fill="black"/>
<path d="M137.422 8.96128H141.761V24.8715H137.422V8.96128Z" fill="black"/>
<path d="M137.13 4.9122C137.132 4.428 137.278 3.95532 137.549 3.55411C137.82 3.15289 138.204 2.84121 138.653 2.65858C139.101 2.47595 139.594 2.4306 140.068 2.52827C140.542 2.62594 140.977 2.86224 141.317 3.20721C141.656 3.55217 141.886 3.99027 141.977 4.46595C142.067 4.94163 142.014 5.43347 141.825 5.87911C141.635 6.32475 141.318 6.70411 140.913 6.96911C140.507 7.2341 140.033 7.37279 139.548 7.36758C139.228 7.36529 138.912 7.29994 138.617 7.17528C138.322 7.05062 138.055 6.86909 137.83 6.64107C137.606 6.41304 137.428 6.14298 137.308 5.84634C137.188 5.54969 137.127 5.23226 137.13 4.9122Z" fill="#E2504B"/>
</svg>
